HIERARCHY
ROOT Hips
{
    OFFSET 0.000000 0.000000 0.000000
    CHANNELS 6 Xposition Yposition Zposition Zrotation Xrotation Yrotation
    JOINT Spine
    {
        OFFSET -0.000000 14.517291 0.000000
        CHANNELS 3 Zrotation Xrotation Yrotation
        JOINT Spine1
        {
            OFFSET -0.000000 37.558300 0.000000
            CHANNELS 3 Zrotation Xrotation Yrotation
            JOINT Neck
            {
                OFFSET -0.000000 37.404057 3.400369
                CHANNELS 3 Zrotation Xrotation Yrotation
                JOINT Head
                {
                    OFFSET -0.000000 24.785618 -3.540803
                    CHANNELS 3 Zrotation Xrotation Yrotation
                    End Site
                    {
                        OFFSET -0.000000 35.408028 0.000000
                    }
                }
            }
            JOINT LeftShoulder
            {
                OFFSET 6.992933 33.973492 -0.192664
                CHANNELS 3 Zrotation Xrotation Yrotation
                JOINT LeftArm
                {
                    OFFSET 21.527611 0.000000 0.000000
                    CHANNELS 3 Zrotation Xrotation Yrotation
                    JOINT LeftForeArm
                    {
                        OFFSET 56.353916 0.000000 0.000000
                        CHANNELS 3 Zrotation Xrotation Yrotation
                        JOINT LeftHand
                        {
                            OFFSET 47.774071 0.000000 0.000000
                            CHANNELS 3 Zrotation Xrotation Yrotation
                            End Site
                            {
                                OFFSET 26.556021 0.000000 0.000000
                            }
                        }
                    }
                }
            }
            JOINT RightShoulder
            {
                OFFSET -7.065357 33.973492 -0.192664
                CHANNELS 3 Zrotation Xrotation Yrotation
                JOINT RightArm
                {
                    OFFSET -21.527611 0.000000 0.000000
                    CHANNELS 3 Zrotation Xrotation Yrotation
                    JOINT RightForeArm
                    {
                        OFFSET -56.353916 0.000000 0.000000
                        CHANNELS 3 Zrotation Xrotation Yrotation
                        JOINT RightHand
                        {
                            OFFSET -47.774071 0.000000 0.000000
                            CHANNELS 3 Zrotation Xrotation Yrotation
                            End Site
                            {
                                OFFSET -26.556021 0.000000 0.000000
                            }
                        }
                    }
                }
            }
        }
    }
    JOINT LeftUpLeg
    {
        OFFSET 17.704014 0.000000 0.000000
        CHANNELS 3 Zrotation Xrotation Yrotation
        JOINT LeftLeg
        {
            OFFSET -0.000000 -81.181816 0.000000
            CHANNELS 3 Zrotation Xrotation Yrotation
            JOINT LeftFoot
            {
                OFFSET -0.000000 -62.821102 0.000000
                CHANNELS 3 Zrotation Xrotation Yrotation
                JOINT LeftToeBase
                {
                    OFFSET -0.000000 -11.507608 26.556021
                    CHANNELS 3 Zrotation Xrotation Yrotation
                    End Site
                    {
                        OFFSET -0.000000 0.000000 7.081605
                    }
                }
            }
        }
    }
    JOINT RightUpLeg
    {
        OFFSET -17.704014 0.000000 0.000000
        CHANNELS 3 Zrotation Xrotation Yrotation
        JOINT RightLeg
        {
            OFFSET -0.000000 -81.181816 0.000000
            CHANNELS 3 Zrotation Xrotation Yrotation
            JOINT RightFoot
            {
                OFFSET -0.000000 -62.821102 0.000000
                CHANNELS 3 Zrotation Xrotation Yrotation
                JOINT RightToeBase
                {
                    OFFSET -0.000000 -11.507608 26.556021
                    CHANNELS 3 Zrotation Xrotation Yrotation
                    End Site
                    {
                        OFFSET -0.000000 0.000000 7.081605
                    }
                }
            }
        }
    }
}
MOTION
Frames:    13
Frame Time:    0.008333
11.345361    155.180237    -119.673561    -0.922421    -6.522342    43.675358    -0.947821    -3.389167    -1.825890    -5.991054    4.488544    -0.366383    -3.120498    -1.462064    -20.869896    20.218494    7.171603    -19.746649    13.908049    -1.967043    -29.721416    -25.757603    17.392128    -73.004593    -14.774934    -4.033294    -88.764427    -11.954088    -16.649336    -16.747669    -18.553625    -9.929030    -0.371296    31.771244    -21.880581    82.589218    3.020111    -4.855159    21.164898    -3.645054    -6.374515    29.572243    20.219223    -3.568130    0.339522    -13.866262    36.653214    -18.979143    3.889247    -27.916592    43.231369    0.000000    0.000000    0.000000    -16.055309    -16.386433    -13.887874    8.434020    20.839685    -15.781348    4.811114    11.039112    -13.821609    0.000000    0.000000    0.000000    
11.337234    155.173935    -119.668137    -0.919950    -6.519207    43.697662    -0.954091    -3.383551    -1.851995    -5.992785    4.507978    -0.373994    -3.091693    -1.439118    -20.862236    20.237865    7.125066    -19.734121    13.836654    -1.772959    -29.790215    -25.978691    17.976168    -73.103867    -14.618923    -4.710743    -88.832741    -12.335359    -17.115604    -16.704374    -18.516855    -9.929767    -0.367862    31.815718    -21.904577    82.617340    3.047342    -4.853186    21.190596    -3.643325    -6.378016    29.577587    20.219656    -3.587825    0.340046    -13.843699    36.696537    -19.280254    3.980055    -27.934805    43.509895    0.000000    0.000000    0.000000    -16.065929    -16.393867    -13.882225    8.448538    20.866625    -15.815981    4.803535    11.016591    -13.812712    0.000000    0.000000    0.000000    
11.333058    155.166046    -119.668076    -0.913838    -6.511537    43.719360    -0.962774    -3.368888    -1.879124    -5.999196    4.511591    -0.382500    -3.043131    -1.440985    -20.848299    20.222530    7.114634    -19.726564    13.770096    -1.581424    -29.856375    -26.241100    18.514076    -73.195663    -14.599417    -5.298689    -88.878403    -12.525983    -17.649443    -16.656342    -18.473244    -9.926909    -0.358324    31.810934    -21.907892    82.621475    3.031697    -4.863460    21.218019    -3.603936    -6.375771    29.577669    20.214642    -3.595333    0.355645    -13.849149    36.672089    -18.989296    3.849220    -27.939301    43.187359    0.000000    0.000000    0.000000    -16.090849    -16.401089    -13.876096    8.470972    20.893826    -15.813113    4.817491    10.993384    -13.853962    0.000000    0.000000    0.000000    
11.326870    155.157089    -119.662750    -0.909937    -6.503916    43.741512    -0.982148    -3.361516    -1.909632    -5.986627    4.518275    -0.392738    -3.014018    -1.433864    -20.844168    20.228985    7.118004    -19.727310    13.689932    -1.401570    -29.918074    -26.434814    19.068399    -73.297234    -14.600503    -5.940173    -88.966698    -12.730579    -18.265764    -16.569586    -18.429201    -9.931558    -0.341325    31.809889    -21.901087    82.626541    3.019356    -4.887884    21.247715    -3.578069    -6.391882    29.579580    20.215055    -3.611161    0.356823    -13.845853    36.687138    -18.988935    3.854311    -27.933254    43.147942    0.000000    0.000000    0.000000    -16.108761    -16.412338    -13.874676    8.483970    20.931147    -15.807084    4.823958    10.957722    -13.875911    0.000000    0.000000    0.000000    
11.317180    155.148071    -119.662117    -0.904221    -6.493918    43.761208    -1.001572    -3.343570    -1.937850    -5.977117    4.510554    -0.402704    -2.978618    -1.436072    -20.833685    20.211636    7.141265    -19.727440    13.615470    -1.209116    -29.982744    -26.510960    19.675631    -73.441612    -14.554917    -6.751789    -89.111801    -12.817555    -19.037262    -16.397278    -18.371651    -9.923631    -0.320847    31.792711    -21.906603    82.633453    3.004947    -4.884076    21.273949    -3.549381    -6.378232    29.568890    20.211842    -3.629492    0.363885    -13.845103    36.701359    -19.004992    3.852848    -27.943886    43.146355    0.000000    0.000000    0.000000    -16.128553    -16.426329    -13.871306    8.505434    20.955332    -15.831032    4.811628    10.938513    -13.892895    0.000000    0.000000    0.000000    
11.308645    155.137955    -119.657013    -0.899366    -6.490038    43.776119    -1.024072    -3.330270    -1.965646    -5.950457    4.517183    -0.412505    -2.941289    -1.482980    -20.816484    20.159885    7.206317    -19.729631    13.524266    -1.037742    -30.062099    -26.730747    20.213295    -73.524857    -14.614777    -7.372273    -89.224724    -12.678493    -19.754877    -16.174210    -18.321157    -9.909979    -0.304729    31.790199    -21.923668    82.663528    3.013708    -4.890020    21.289194    -3.527338    -6.380779    29.579969    20.213129    -3.639288    0.386555    -13.835614    36.716080    -19.029045    3.824475    -27.967791    43.133240    0.000000    0.000000    0.000000    -16.141241    -16.437962    -13.865090    8.515379    20.990679    -15.841335    4.809490    10.915851    -13.894099    0.000000    0.000000    0.000000    
11.299978    155.129700    -119.655952    -0.898374    -6.480435    43.787521    -1.043846    -3.318407    -1.988767    -5.932251    4.522505    -0.420426    -2.891330    -1.557043    -20.805984    20.097805    7.312200    -19.748295    13.442526    -0.886282    -30.125065    -26.738420    20.910231    -73.688950    -14.540494    -8.317875    -89.450096    -12.725152    -20.651171    -15.951298    -18.273106    -9.920947    -0.299139    31.744783    -21.888517    82.658585    2.974659    -4.930439    21.320034    -3.517516    -6.412053    29.581093    20.211641    -3.661767    0.388374    -13.839469    36.737335    -19.011057    3.854446    -27.946058    43.107037    0.000000    0.000000    0.000000    -16.153816    -16.464817    -13.860055    8.522831    21.036177    -15.863678    4.813853    10.896205    -13.909227    0.000000    0.000000    0.000000    
11.296718    155.122330    -119.650665    -0.898847    -6.478765    43.802090    -1.049783    -3.304717    -2.012439    -5.908659    4.530383    -0.428847    -2.759663    -1.545601    -20.821991    19.855154    7.292925    -19.801426    13.353146    -0.726432    -30.183132    -26.815958    21.568077    -73.852715    -14.508462    -9.188927    -89.647408    -12.746317    -21.515331    -15.690079    -18.249783    -9.925363    -0.318669    31.754927    -21.863089    82.695709    2.979265    -4.952291    21.340061    -3.503978    -6.432408    29.603088    20.212284    -3.678871    0.392731    -13.830378    36.758377    -18.978596    3.824812    -27.960464    43.060184    0.000000    0.000000    0.000000    -16.163113    -16.478306    -13.843110    8.533111    21.070988    -15.874172    4.826358    10.873044    -13.914525    0.000000    0.000000    0.000000    
11.293371    155.117798    -119.644081    -0.899838    -6.479137    43.812393    -1.063770    -3.298778    -2.036220    -5.878253    4.536257    -0.437570    -2.907701    -1.582440    -20.820883    20.140678    7.441009    -19.780638    13.289686    -0.556746    -30.253534    -26.886814    22.264067    -74.048164    -14.366522    -10.199142    -89.833199    -12.768066    -22.416082    -15.271306    -18.216349    -9.921958    -0.289363    31.776937    -21.871120    82.704651    3.012144    -4.951972    21.361656    -3.520872    -6.443488    29.609480    20.220524    -3.691682    0.377296    -13.850090    36.773052    -18.969316    3.828191    -27.964439    43.072685    0.000000    0.000000    0.000000    -16.168854    -16.477697    -13.832204    8.552817    21.077900    -15.882354    4.822006    10.861121    -13.928169    0.000000    0.000000    0.000000    
11.288941    155.115234    -119.637634    -0.905388    -6.480425    43.817989    -1.067650    -3.288136    -2.058987    -5.861216    4.537868    -0.445740    -2.871305    -1.575943    -20.813177    20.137842    7.453666    -19.781168    13.244701    -0.411630    -30.304867    -26.917067    23.063408    -74.254341    -14.112982    -11.338884    -90.087036    -12.805441    -23.328491    -14.986180    -18.181381    -9.911460    -0.289228    31.781073    -21.853157    82.720558    3.007932    -4.957146    21.399563    -3.516330    -6.448614    29.638247    20.234451    -3.704628    0.364975    -13.870691    36.786270    -18.961004    3.805540    -27.968353    43.070904    0.000000    0.000000    0.000000    -16.169958    -16.489925    -13.822180    8.566080    21.103619    -15.891793    4.834079    10.851387    -13.940459    0.000000    0.000000    0.000000    
11.287085    155.109787    -119.631889    -0.910916    -6.477498    43.823139    -1.073877    -3.286268    -2.082540    -5.841949    4.551845    -0.453576    -2.862284    -1.578575    -20.815151    20.167297    7.479284    -19.787180    13.205191    -0.274090    -30.364950    -27.107609    23.775108    -74.387970    -13.943569    -12.262798    -90.327591    -12.535585    -24.157198    -14.624473    -18.144043    -9.893870    -0.279958    31.820194    -21.859619    82.750229    3.016938    -4.946148    21.439362    -3.534732    -6.445727    29.652779    20.241684    -3.718340    0.356857    -13.885543    36.802963    -18.948936    3.798991    -27.984652    43.076340    0.000000    0.000000    0.000000    -16.172171    -16.505781    -13.828756    8.569213    21.134581    -15.864720    4.830119    10.832568    -13.954505    0.000000    0.000000    0.000000    
11.286629    155.110336    -119.626595    -0.920861    -6.475235    43.825420    -1.078186    -3.287414    -2.106878    -5.812780    4.570546    -0.461818    -2.839428    -1.586392    -20.819517    20.168999    7.479942    -19.795364    13.163027    -0.138223    -30.398695    -27.236389    24.518143    -74.565163    -13.673938    -13.266497    -90.553650    -12.613995    -24.921453    -14.222931    -18.124706    -9.891103    -0.290555    31.843000    -21.835651    82.777145    3.015878    -4.971756    21.486401    -3.528832    -6.470245    29.635197    20.253208    -3.731700    0.342745    -13.909020    36.807102    -18.906981    3.820782    -27.968044    43.063366    0.000000    0.000000    0.000000    -16.170036    -16.509396    -13.827948    8.573491    21.133192    -15.895668    4.834694    10.837112    -13.923193    0.000000    0.000000    0.000000    
11.287024    155.109375    -119.622208    -0.930183    -6.470546    43.825466    -1.079522    -3.287349    -2.132261    -5.791086    4.581156    -0.470521    -2.842100    -1.585672    -20.815279    20.207411    7.487240    -19.789053    13.139458    -0.000238    -30.424551    -27.416376    25.250628    -74.734146    -13.368866    -14.221893    -90.793655    -12.396213    -25.632761    -13.907156    -18.100122    -9.880914    -0.286139    31.839830    -21.816532    82.789635    2.998203    -4.990655    21.528891    -3.484711    -6.474466    29.608530    20.258169    -3.743134    0.331846    -13.915990    36.807930    -18.892672    3.807770    -27.976931    43.060642    0.000000    0.000000    0.000000    -16.172590    -16.518177    -13.818176    8.593322    21.137026    -15.914075    4.815178    10.835362    -13.918965    0.000000    0.000000    0.000000    
